<svg xmlns="http://www.w3.org/2000/svg" width="920" height="490" viewBox="0 0 920 490" role="img" aria-labelledby="title"><title id="title">Stack por categoria</title><defs><linearGradient id="chip"><stop stop-color="#102b50"/><stop offset="1" stop-color="#0a162b"/></linearGradient></defs><rect width="920" height="490" rx="14" fill="#080e18"/><text x="24" y="28" font-family="Arial,sans-serif" font-weight="600" font-size="17" fill="#e6edf3">Linguagens</text><rect x="24" y="40" width="128" height="30" rx="6" fill="url(#chip)" stroke="#245aa0"/><circle cx="37" cy="55" r="3" fill="#58a6ff"/><text x="48" y="60" font-family="Arial,sans-serif" font-size="14" fill="#cbe5ff">TypeScript</text><rect x="162" y="40" width="128" height="30" rx="6" fill="url(#chip)" stroke="#245aa0"/><circle cx="175" cy="55" r="3" fill="#58a6ff"/><text x="186" y="60" font-family="Arial,sans-serif" font-size="14" fill="#cbe5ff">JavaScript</text><rect x="300" y="40" width="78" height="30" rx="6" fill="url(#chip)" stroke="#245aa0"/><circle cx="313" cy="55" r="3" fill="#58a6ff"/><text x="324" y="60" font-family="Arial,sans-serif" font-size="14" fill="#cbe5ff">Java</text><rect x="388" y="40" width="78" height="30" rx="6" fill="url(#chip)" stroke="#245aa0"/><circle cx="401" cy="55" r="3" fill="#58a6ff"/><text x="412" y="60" font-family="Arial,sans-serif" font-size="14" fill="#cbe5ff">C</text><text x="24" y="105" font-family="Arial,sans-serif" font-weight="600" font-size="17" fill="#e6edf3">Frontend</text><rect x="24" y="117" width="83" height="30" rx="6" fill="url(#chip)" stroke="#245aa0"/><circle cx="37" cy="132" r="3" fill="#58a6ff"/><text x="48" y="137" font-family="Arial,sans-serif" font-size="14" fill="#cbe5ff">React</text><rect x="117" y="117" width="78" height="30" rx="6" fill="url(#chip)" stroke="#245aa0"/><circle cx="130" cy="132" r="3" fill="#58a6ff"/><text x="141" y="137" font-family="Arial,sans-serif" font-size="14" fill="#cbe5ff">Vite</text><rect x="205" y="117" width="146" height="30" rx="6" fill="url(#chip)" stroke="#245aa0"/><circle cx="218" cy="132" r="3" fill="#58a6ff"/><text x="229" y="137" font-family="Arial,sans-serif" font-size="14" fill="#cbe5ff">Tailwind CSS</text><rect x="361" y="117" width="78" height="30" rx="6" fill="url(#chip)" stroke="#245aa0"/><circle cx="374" cy="132" r="3" fill="#58a6ff"/><text x="385" y="137" font-family="Arial,sans-serif" font-size="14" fill="#cbe5ff">HTML</text><rect x="449" y="117" width="78" height="30" rx="6" fill="url(#chip)" stroke="#245aa0"/><circle cx="462" cy="132" r="3" fill="#58a6ff"/><text x="473" y="137" font-family="Arial,sans-serif" font-size="14" fill="#cbe5ff">CSS</text><text x="24" y="182" font-family="Arial,sans-serif" font-weight="600" font-size="17" fill="#e6edf3">Backend</text><rect x="24" y="194" width="101" height="30" rx="6" fill="url(#chip)" stroke="#245aa0"/><circle cx="37" cy="209" r="3" fill="#58a6ff"/><text x="48" y="214" font-family="Arial,sans-serif" font-size="14" fill="#cbe5ff">Node.js</text><rect x="135" y="194" width="101" height="30" rx="6" fill="url(#chip)" stroke="#245aa0"/><circle cx="148" cy="209" r="3" fill="#58a6ff"/><text x="159" y="214" font-family="Arial,sans-serif" font-size="14" fill="#cbe5ff">Express</text><rect x="246" y="194" width="92" height="30" rx="6" fill="url(#chip)" stroke="#245aa0"/><circle cx="259" cy="209" r="3" fill="#58a6ff"/><text x="270" y="214" font-family="Arial,sans-serif" font-size="14" fill="#cbe5ff">Prisma</text><rect x="348" y="194" width="78" height="30" rx="6" fill="url(#chip)" stroke="#245aa0"/><circle cx="361" cy="209" r="3" fill="#58a6ff"/><text x="372" y="214" font-family="Arial,sans-serif" font-size="14" fill="#cbe5ff">Java</text><text x="24" y="259" font-family="Arial,sans-serif" font-weight="600" font-size="17" fill="#e6edf3">Dados e autenticação</text><rect x="24" y="271" width="128" height="30" rx="6" fill="url(#chip)" stroke="#245aa0"/><circle cx="37" cy="286" r="3" fill="#58a6ff"/><text x="48" y="291" font-family="Arial,sans-serif" font-size="14" fill="#cbe5ff">PostgreSQL</text><rect x="162" y="271" width="83" height="30" rx="6" fill="url(#chip)" stroke="#245aa0"/><circle cx="175" cy="286" r="3" fill="#58a6ff"/><text x="186" y="291" font-family="Arial,sans-serif" font-size="14" fill="#cbe5ff">MySQL</text><rect x="255" y="271" width="110" height="30" rx="6" fill="url(#chip)" stroke="#245aa0"/><circle cx="268" cy="286" r="3" fill="#58a6ff"/><text x="279" y="291" font-family="Arial,sans-serif" font-size="14" fill="#cbe5ff">Supabase</text><rect x="375" y="271" width="92" height="30" rx="6" fill="url(#chip)" stroke="#245aa0"/><circle cx="388" cy="286" r="3" fill="#58a6ff"/><text x="399" y="291" font-family="Arial,sans-serif" font-size="14" fill="#cbe5ff">SQLite</text><rect x="477" y="271" width="110" height="30" rx="6" fill="url(#chip)" stroke="#245aa0"/><circle cx="490" cy="286" r="3" fill="#58a6ff"/><text x="501" y="291" font-family="Arial,sans-serif" font-size="14" fill="#cbe5ff">Firebase</text><rect x="597" y="271" width="119" height="30" rx="6" fill="url(#chip)" stroke="#245aa0"/><circle cx="610" cy="286" r="3" fill="#58a6ff"/><text x="621" y="291" font-family="Arial,sans-serif" font-size="14" fill="#cbe5ff">Firestore</text><text x="24" y="336" font-family="Arial,sans-serif" font-weight="600" font-size="17" fill="#e6edf3">Automação e ferramentas</text><rect x="24" y="348" width="164" height="30" rx="6" fill="url(#chip)" stroke="#245aa0"/><circle cx="37" cy="363" r="3" fill="#58a6ff"/><text x="48" y="368" font-family="Arial,sans-serif" font-size="14" fill="#cbe5ff">GitHub Actions</text><rect x="198" y="348" width="128" height="30" rx="6" fill="url(#chip)" stroke="#245aa0"/><circle cx="211" cy="363" r="3" fill="#58a6ff"/><text x="222" y="368" font-family="Arial,sans-serif" font-size="14" fill="#cbe5ff">Playwright</text><rect x="336" y="348" width="92" height="30" rx="6" fill="url(#chip)" stroke="#245aa0"/><circle cx="349" cy="363" r="3" fill="#58a6ff"/><text x="360" y="368" font-family="Arial,sans-serif" font-size="14" fill="#cbe5ff">Docker</text><rect x="438" y="348" width="92" height="30" rx="6" fill="url(#chip)" stroke="#245aa0"/><circle cx="451" cy="363" r="3" fill="#58a6ff"/><text x="462" y="368" font-family="Arial,sans-serif" font-size="14" fill="#cbe5ff">Resend</text><text x="24" y="413" font-family="Arial,sans-serif" font-weight="600" font-size="17" fill="#e6edf3">Desktop</text><rect x="24" y="425" width="92" height="30" rx="6" fill="url(#chip)" stroke="#245aa0"/><circle cx="37" cy="440" r="3" fill="#58a6ff"/><text x="48" y="445" font-family="Arial,sans-serif" font-size="14" fill="#cbe5ff">JavaFX</text></svg>